{"title":"Psychoparadox - ...And Your Life Is Just Another Dream","uid":7993910,"size":296062937,"categoryP":"audio","categoryS":"flac","magnet":"?xt=urn:btih:f7593db036dce6943167029accb593d2f42143ca&amp;dn=Psychoparadox+-+...And+Your+Life+Is+Just+Another+Dream&amp;tr=udp%3A%2F%2Ftracker.openbittorrent.com%3A80&amp;tr=udp%3A%2F%2Fopen.demonii.com%3A1337&amp;tr=udp%3A%2F%2Ftracker.coppersurfer.tk%3A6969&amp;tr=udp%3A%2F%2Fexodus.desync.com%3A6969","seeders":1,"leechers":0,"uploader":"zlivuk","files":-1,"time":1357519826,"description":"Artist  : Psychoparadox\nAlbum   : ...And Your Life Is Just Another Dream\nYear    : 1995\nGenre   : Death Metal\nCountry : Serbia\nCodec   : FLAC (image+cue)\n\n---------- LOG ----------\nExact Audio Copy V0.99 prebeta 5 from 4. May 2009\n\nEAC extraction logfile from 23. September 2011, 12:45\n\nPsychoparadox / ...And Your Life Is Just Another Dream\n\nUsed drive  : PIONEER DVD-RW  DVR-111D   Adapter: 0  ID: 0\n\nRead mode               : Secure\nUtilize accurate stream : Yes\nDefeat audio cache      : Yes\nMake use of C2 pointers : No\n\nRead offset correction                      : 48\nOverread into Lead-In and Lead-Out          : Yes\nFill up missing offset samples with silence : Yes\nDelete leading and trailing silent blocks   : No\nNull samples used in CRC calculations       : Yes\nUsed interface                              : Native Win32 interface for Win NT &amp; 2000\n\nUsed output format              : User Defined Encoder\nSelected bitrate                : 1024 kBit/s\nQuality                         : High\nAdd ID3 tag                     : No\nCommand line compressor         : C:Program FilesExact Audio CopyFlacflac.exe\nAdditional command line options : -8 -V -T &quot;ARTIST=%a&quot; -T &quot;TITLE=%t&quot; -T &quot;ALBUM=%g&quot; -T &quot;DATE=%y&quot; -T &quot;TRACKNUMBER=%n&quot; -T &quot;GENRE=%m&quot; -T &quot;COMMENT=EAC FLAC -8&quot; %s\n\n\nTOC of the extracted CD\n\n     Track |   Start  |  Length  | Start sector | End sector \n    ---------------------------------------------------------\n        1  |  0:00.00 |  4:18.50 |         0    |    19399   \n        2  |  4:18.50 |  3:17.01 |     19400    |    34175   \n        3  |  7:35.51 |  3:34.58 |     34176    |    50283   \n        4  | 11:10.34 |  3:41.13 |     50284    |    66871   \n        5  | 14:51.47 |  4:06.06 |     66872    |    85327   \n        6  | 18:57.53 |  5:18.69 |     85328    |   109246   \n        7  | 24:16.47 |  3:48.33 |    109247    |   126379   \n        8  | 28:05.05 |  4:24.38 |    126380    |   146217   \n        9  | 32:29.43 |  4:25.12 |    146218    |   166104   \n       10  | 36:54.55 |  2:18.71 |    166105    |   176525   \n\n\nRange status and errors\n\nSelected range\n\n     Filename D:Psychoparadox - ...And Your Life Is Just Another Dream.wav\n\n     Peak level 92.3 %\n     Range quality 99.9 %\n     Copy CRC 89716988\n     Copy OK\n\nNo errors occurred\n\nEnd of status report\n---------- EOL ----------","torrent":{"xt":"urn:btih:f7593db036dce6943167029accb593d2f42143ca","amp;dn":"Psychoparadox+-+...And+Your+Life+Is+Just+Another+Dream","amp;tr":["udp%3A%2F%2Ftracker.openbittorrent.com%3A80","udp%3A%2F%2Fopen.demonii.com%3A1337","udp%3A%2F%2Ftracker.coppersurfer.tk%3A6969","udp%3A%2F%2Fexodus.desync.com%3A6969"],"infoHash":"f7593db036dce6943167029accb593d2f42143ca","infoHashBuffer":{"type":"Buffer","data":[247,89,61,176,54,220,230,148,49,103,2,154,204,181,147,210,244,33,67,202]},"announce":[],"urlList":[]}}